<!-- icon666.com - MILLIONS vector ICONS FREE --><svg viewBox="-35 0 512 512" xmlns="http://www.w3.org/2000/svg"><path d="m7.5 7.5h364v497h-364zm0 0" fill="#dcdfe8"></path><path d="m341.5 7.5h30v497h-30zm0 0" fill="#cbcdd9"></path><path d="m7.5 7.5h364v80h-364zm0 0" fill="#5793c9"></path><path d="m341.5 7.5h30v80h-30zm0 0" fill="#4c87bd"></path><path d="m68.5 47c0 8.285156-6.714844 15-15 15s-15-6.714844-15-15 6.714844-15 15-15 15 6.714844 15 15zm0 0" fill="#ff4b26"></path><path d="m128.5 47c0 8.285156-6.714844 15-15 15s-15-6.714844-15-15 6.714844-15 15-15 15 6.714844 15 15zm0 0" fill="#ffd659"></path><path d="m188.5 47c0 8.285156-6.714844 15-15 15s-15-6.714844-15-15 6.714844-15 15-15 15 6.714844 15 15zm0 0" fill="#47d5e6"></path><path d="m371.5 310.933594v169.996094l-30-18.191407-25-15.148437-25 15.148437-30 18.191407v-169.996094zm0 0" fill="#ff4b26"></path><path d="m341.5 323v139.738281l-25-15.148437-25 15.148437v-139.738281zm0 0" fill="#47d5e6"></path><path d="m434.5 236.929688c0 10.03125-13.019531 18.21875-15.492188 27.46875-2.558593 9.574218 4.546876 23.160156-.300781 31.542968-4.921875 8.5-20.285156 9.109375-27.183593 16.007813-6.902344 6.902343-7.507813 22.265625-16.011719 27.183593-8.378907 4.851563-21.964844-2.257812-31.539063.300782-9.25 2.472656-17.441406 15.496094-27.472656 15.496094s-18.21875-13.023438-27.46875-15.496094c-9.574219-2.558594-23.160156 4.550781-31.542969-.300782-8.5-4.917968-9.109375-20.28125-16.007812-27.183593-6.902344-6.898438-22.265625-7.507813-27.183594-16.007813-4.851563-8.382812 2.257813-21.96875-.300781-31.539062-2.472656-9.253906-15.492188-17.441406-15.492188-27.472656s13.019532-18.21875 15.492188-27.472657c2.558594-9.570312-4.550782-23.15625.300781-31.539062 4.917969-8.503907 20.28125-9.109375 27.183594-16.011719 6.898437-6.898438 7.507812-22.261719 16.007812-27.183594 8.382813-4.847656 21.96875 2.257813 31.539063-.300781 9.253906-2.472656 17.441406-15.492187 27.472656-15.492187s18.21875 13.019531 27.472656 15.492187c9.574219 2.558594 23.160156-4.546875 31.539063.300781 8.503906 4.921875 9.109375 20.285156 16.011719 27.183594 6.898437 6.902344 22.261718 7.507812 27.183593 16.011719 4.847657 8.382812-2.257812 21.964843.300781 31.539062 2.472657 9.253907 15.492188 17.441407 15.492188 27.472657zm0 0" fill="#ffd659"></path><path d="m394.5 236.929688c0 43.078124-34.921875 78-78 78s-78-34.921876-78-78c0-43.078126 34.921875-78 78-78s78 34.921874 78 78zm0 0" fill="#ff4b26"></path><path d="m31 47c0 12.40625 10.09375 22.5 22.5 22.5s22.5-10.09375 22.5-22.5-10.09375-22.5-22.5-22.5-22.5 10.09375-22.5 22.5zm30 0c0 4.136719-3.363281 7.5-7.5 7.5s-7.5-3.363281-7.5-7.5 3.363281-7.5 7.5-7.5 7.5 3.363281 7.5 7.5zm0 0"></path><path d="m91 47c0 12.40625 10.09375 22.5 22.5 22.5s22.5-10.09375 22.5-22.5-10.09375-22.5-22.5-22.5-22.5 10.09375-22.5 22.5zm30 0c0 4.136719-3.363281 7.5-7.5 7.5s-7.5-3.363281-7.5-7.5 3.363281-7.5 7.5-7.5 7.5 3.363281 7.5 7.5zm0 0"></path><path d="m151 47c0 12.40625 10.09375 22.5 22.5 22.5s22.5-10.09375 22.5-22.5-10.09375-22.5-22.5-22.5-22.5 10.09375-22.5 22.5zm30 0c0 4.136719-3.363281 7.5-7.5 7.5s-7.5-3.363281-7.5-7.5 3.363281-7.5 7.5-7.5 7.5 3.363281 7.5 7.5zm0 0"></path><path d="m106.460938 151.085938-58.597657.003906c-4.140625 0-7.5 3.355468-7.5 7.5 0 4.140625 3.359375 7.5 7.5 7.5l58.601563-.003906c4.140625 0 7.5-3.359376 7.5-7.503907 0-4.140625-3.359375-7.496093-7.503906-7.496093zm0 0"></path><path d="m167.863281 180.917969-120 .003906c-4.140625 0-7.5 3.359375-7.5 7.5 0 4.144531 3.359375 7.5 7.5 7.5l120-.003906c4.144531 0 7.5-3.359375 7.5-7.5 0-4.144531-3.355469-7.5-7.5-7.5zm0 0"></path><path d="m47.867188 225.753906 119.996093-.003906c4.144531 0 7.5-3.355469 7.5-7.5 0-4.140625-3.355469-7.5-7.5-7.5l-119.996093.003906c-4.144532 0-7.5 3.359375-7.5 7.5 0 4.144532 3.359374 7.5 7.5 7.5zm0 0"></path><path d="m47.867188 256.40625 119.996093-.003906c4.144531 0 7.5-3.359375 7.5-7.5 0-4.144532-3.355469-7.5-7.5-7.5l-119.996093.003906c-4.144532 0-7.5 3.355469-7.5 7.5 0 4.140625 3.359374 7.5 7.5 7.5zm0 0"></path><path d="m47.867188 285.246094 119.996093-.003906c4.144531 0 7.5-3.359376 7.5-7.5 0-4.144532-3.355469-7.5-7.5-7.5l-119.996093.003906c-4.144532 0-7.5 3.355468-7.5 7.5 0 4.140625 3.359374 7.5 7.5 7.5zm0 0"></path><path d="m47.867188 314.085938 68.132812-.007813c4.144531 0 7.5-3.355469 7.5-7.5 0-4.140625-3.359375-7.5-7.5-7.5l-68.132812.007813c-4.144532 0-7.5 3.355468-7.5 7.5 0 4.140624 3.359374 7.5 7.5 7.5zm0 0"></path><path d="m47.867188 427.132812 150.632812-.007812c4.144531 0 7.5-3.355469 7.5-7.5 0-4.140625-3.359375-7.5-7.5-7.5l-150.632812.007812c-4.144532 0-7.5 3.355469-7.5 7.5 0 4.140626 3.359374 7.5 7.5 7.5zm0 0"></path><path d="m432.21875 257.273438c4.585938-5.65625 9.78125-12.070313 9.78125-20.34375 0-8.273438-5.195312-14.6875-9.78125-20.347657-2.601562-3.210937-5.289062-6.53125-5.964844-9.0625-.738281-2.757812-.058594-7.132812.601563-11.359375 1.097656-7.066406 2.347656-15.078125-1.65625-22-4.058594-7.011718-11.6875-9.945312-18.414063-12.53125-3.941406-1.515625-8.015625-3.082031-9.960937-5.023437-1.941407-1.945313-3.507813-6.019531-5.023438-9.960938-2.585937-6.730469-5.519531-14.355469-12.53125-18.414062-.089843-.050781-.179687-.089844-.269531-.140625v-120.589844c0-4.144531-3.355469-7.5-7.5-7.5h-364c-4.144531 0-7.5 3.355469-7.5 7.5v440.5c0 4.144531 3.355469 7.5 7.5 7.5s7.5-3.355469 7.5-7.5v-353h301.5c4.144531 0 7.5-3.355469 7.5-7.5s-3.355469-7.5-7.5-7.5h-301.5v-65h349v65h-15.332031c-4.144531 0-7.5 3.355469-7.5 7.5s3.355469 7.5 7.5 7.5h15.332031v30.675781c-2.292969.210938-4.558594.5625-6.734375.898438-4.226563.660156-8.597656 1.339843-11.355469.601562-2.53125-.675781-5.851562-3.363281-9.0625-5.964843-5.660156-4.585938-12.074218-9.78125-20.347656-9.78125s-14.6875 5.195312-20.347656 9.78125c-3.210938 2.601562-6.53125 5.289062-9.0625 5.964843-2.753906.738281-7.128906.058594-11.355469-.601562-7.070313-1.101563-15.082031-2.347657-22.003906 1.65625-7.011719 4.058593-9.945313 11.683593-12.53125 18.414062-1.515625 3.941407-3.082031 8.015625-5.023438 9.960938-1.945312 1.941406-6.019531 3.507812-9.957031 5.023437-6.730469 2.585938-14.359375 5.519532-18.414062 12.53125-4.003907 6.917969-2.757813 14.933594-1.65625 22 .65625 4.230469 1.335937 8.601563.597656 11.359375-.675782 2.53125-3.363282 5.851563-5.964844 9.0625-4.585938 5.660157-9.78125 12.074219-9.78125 20.347657 0 8.269531 5.195312 14.6875 9.78125 20.34375 2.601562 3.214843 5.289062 6.535156 5.964844 9.0625.738281 2.761718.058594 7.132812-.597656 11.359374-1.101563 7.070313-2.347657 15.082032 1.65625 22.003907 4.054687 7.011719 11.683593 9.941406 18.414062 12.527343 3.9375 1.515626 8.011719 3.082032 9.957031 5.027344 1.941407 1.941406 3.511719 6.019532 5.023438 9.957032 2.585937 6.730468 5.519531 14.355468 12.53125 18.414062.089843.050781.179687.09375.269531.144531v135.152344c0 2.707031 1.460938 5.203125 3.820312 6.53125 2.355469 1.328125 5.25 1.285156 7.566407-.117187l51.113281-30.976563 47.5 28.785156v11.855469h-349v-17.25c0-4.144531-3.355469-7.5-7.5-7.5s-7.5 3.355469-7.5 7.5v24.75c0 4.144531 3.355469 7.5 7.5 7.5h364c4.144531 0 7.5-3.355469 7.5-7.5v-158.730469c.089844-.050781.179688-.089843.269531-.140625 7.011719-4.058594 9.945313-11.6875 12.53125-18.414062 1.515625-3.941406 3.082031-8.015625 5.023438-9.960938 1.945312-1.941406 6.019531-3.511718 9.957031-5.023437 6.730469-2.585938 14.359375-5.519531 18.414062-12.53125 4.003907-6.921875 2.757813-14.933594 1.65625-22.003907-.65625-4.226562-1.335937-8.597656-.597656-11.355468.675782-2.53125 3.363282-5.851563 5.964844-9.066406zm-163.21875 90.910156c2.292969-.210938 4.558594-.5625 6.734375-.902344 2.875-.445312 5.808594-.890625 8.265625-.90625v112.140625l-15 9.089844zm43.613281 92.992187-13.613281 8.25v-94.503906c4.964844 3.875 10.582031 7.507813 17.5 7.507813s12.535156-3.632813 17.5-7.507813v94.503906l-13.613281-8.25c-2.390625-1.445312-5.382813-1.445312-7.773438 0zm51.386719 26.429688-15-9.089844v-112.140625c2.457031.011719 5.390625.460938 8.265625.90625 2.175781.339844 4.441406.691406 6.734375.902344zm56.5625-219.769531c-3.589844 4.429687-7.300781 9.011718-8.800781 14.628906-1.554688 5.8125-.585938 12.042968.269531 17.539062.71875 4.613282 1.53125 9.847656.179688 12.183594-1.402344 2.425781-6.183594 4.261719-10.8125 6.042969-5.398438 2.074219-10.984376 4.222656-15.179688 8.417969-4.199219 4.195312-6.347656 9.78125-8.421875 15.183593-1.777344 4.625-3.617187 9.40625-6.042969 10.8125-.425781.246094-.949218.417969-1.546875.535157-.082031.015624-.167969.023437-.25.042968-2.683593.4375-6.726562-.191406-10.382812-.757812-5.496094-.855469-11.726563-1.828125-17.539063-.273438-1.148437.304688-2.242187.722656-3.308594 1.195313-.105468.042969-.207031.085937-.3125.132812-4.03125 1.839844-7.570312 4.6875-11.011718 7.476563-3.90625 3.164062-7.941406 6.4375-10.902344 6.4375s-7-3.273438-10.90625-6.4375c-3.441406-2.789063-6.980469-5.636719-11.019531-7.480469-.097657-.042969-.195313-.085937-.292969-.125-1.070312-.472656-2.167969-.890625-3.316406-1.199219-2.242188-.597656-4.546875-.824218-6.847656-.824218-3.664063 0-7.316407.570312-10.691407 1.097656-3.660156.566406-7.703125 1.195312-10.386719.757812-.078124-.019531-.164062-.027344-.246093-.042968-.597657-.113282-1.121094-.289063-1.550781-.535157-2.425782-1.402343-4.261719-6.183593-6.039063-10.808593-2.078125-5.402344-4.226563-10.992188-8.421875-15.1875-4.195312-4.195313-9.78125-6.34375-15.183594-8.417969-4.625-1.78125-9.410156-3.617188-10.8125-6.042969-1.351562-2.335938-.539062-7.566406.183594-12.183594.851562-5.496094 1.824219-11.722656.269531-17.539062-1.5-5.613282-5.214843-10.199219-8.804687-14.628906-3.164063-3.90625-6.4375-7.945313-6.4375-10.90625 0-2.957032 3.273437-6.996094 6.4375-10.902344 3.589844-4.433594 7.304687-9.015625 8.804687-14.632813 1.554688-5.8125.582031-12.042969-.269531-17.539062-.71875-4.613281-1.535156-9.84375-.183594-12.179688 1.402344-2.429687 6.1875-4.265625 10.8125-6.042969 5.402344-2.078124 10.988282-4.226562 15.183594-8.417968 4.195312-4.199219 6.34375-9.785156 8.417969-15.1875 1.78125-4.625 3.617187-9.40625 6.042969-10.8125 2.335937-1.347656 7.570312-.535156 12.183593.183594 5.496094.855468 11.722657 1.820312 17.539063.269531 5.613281-1.5 10.199218-5.214844 14.632812-8.804688 3.902344-3.164062 7.941406-6.433593 10.902344-6.433593s7 3.269531 10.902344 6.433593c4.433594 3.589844 9.019531 7.304688 14.632812 8.804688 5.8125 1.554687 12.042969.585937 17.539063-.269531 4.613281-.71875 9.847656-1.535157 12.183593-.183594 2.425782 1.402344 4.261719 6.1875 6.039063 10.8125 2.078125 5.402344 4.226563 10.988281 8.421875 15.1875 4.195312 4.195312 9.78125 6.339844 15.183594 8.417968 4.625 1.777344 9.410156 3.617188 10.8125 6.042969 1.351562 2.332031.539062 7.5625-.183594 12.179688-.851562 5.496093-1.824219 11.726562-.269531 17.539062 1.5 5.617188 5.214843 10.199219 8.804687 14.632813 3.164063 3.90625 6.4375 7.945312 6.4375 10.902344 0 2.960937-3.273437 7-6.441406 10.90625zm0 0"></path><path d="m316.5 151.429688c-47.144531 0-85.5 38.355468-85.5 85.5 0 47.144531 38.355469 85.5 85.5 85.5 9.507812 0 18.851562-1.550782 27.769531-4.613282 3.917969-1.34375 6.003907-5.609375 4.660157-9.527344-1.347657-3.917968-5.613282-6-9.53125-4.660156-7.347657 2.523438-15.050782 3.800782-22.898438 3.800782-38.871094 0-70.5-31.625-70.5-70.5 0-38.871094 31.628906-70.5 70.5-70.5 38.875 0 70.5 31.628906 70.5 70.5 0 19.722656-8.347656 38.679687-22.898438 52.007812-3.054687 2.796875-3.265624 7.542969-.46875 10.597656 2.800782 3.054688 7.542969 3.261719 10.597657.464844 17.648437-16.164062 27.769531-39.152344 27.769531-63.070312 0-47.144532-38.355469-85.5-85.5-85.5zm0 0"></path></svg>