<svg id="Capa_1" data-name="Capa 1" xmlns="http://www.w3.org/2000/svg" viewBox="0 0 434 512"><defs><style>.cls-1{fill:#c88b4f;}.cls-2{fill:#af6a39;}.cls-3{fill:#fff;}.cls-12,.cls-4{fill:#3872b7;}.cls-5{fill:#f4d34c;}.cls-6{fill:#d6a10d;}.cls-7{fill:#52668d;}.cls-8{fill:#243b5d;}.cls-9{fill:#254e87;}.cls-10{fill:#c9cdd3;}.cls-11,.cls-12{font-size:135.52px;font-family:MyriadPro-Regular, Myriad Pro;}</style></defs><title>Mesa de trabajo 1SNIS</title><path class="cls-1" d="M97.45,101.43V489.2a15.3,15.3,0,0,0,15.3,15.3H400.41a15.3,15.3,0,0,0,15.3-15.3V101.43a15.3,15.3,0,0,0-15.3-15.3H112.75A15.3,15.3,0,0,0,97.45,101.43Z"/><path class="cls-2" d="M400.41,86.13h-26a15.3,15.3,0,0,1,15.3,15.3V489.2a15.3,15.3,0,0,1-15.3,15.3h26a15.3,15.3,0,0,0,15.3-15.3V101.43A15.3,15.3,0,0,0,400.41,86.13Z"/><path class="cls-3" d="M393.27,114.69V434l-48.08,48.09H126a6.12,6.12,0,0,1-6.12-6.12V114.69a6.12,6.12,0,0,1,6.12-6.12H387.15A6.12,6.12,0,0,1,393.27,114.69Z"/><path class="cls-4" d="M14.29,415.78h0A12.18,12.18,0,0,1,26.47,403.6H41.22V428H26.47A12.18,12.18,0,0,1,14.29,415.78Z"/><path class="cls-5" d="M163.64,437.56H270.26a11.7,11.7,0,0,0,5.52-1.38L304.35,421a5.89,5.89,0,0,0,0-10.4l-28.57-15.2a11.81,11.81,0,0,0-5.52-1.37H163.64Z"/><path class="cls-6" d="M304.36,410.58l-1.84-1-26.73,7.93a19.5,19.5,0,0,1-5.53.77H163.64v19.25H270.26a11.7,11.7,0,0,0,5.52-1.38L304.35,421A5.89,5.89,0,0,0,304.36,410.58Z"/><path class="cls-7" d="M304.36,410.58l-28.58-15.2a12,12,0,0,0-4.2-1.3v43.4a11.8,11.8,0,0,0,4.2-1.3L304.35,421A5.89,5.89,0,0,0,304.36,410.58Z"/><path class="cls-7" d="M50.55,445.52H164.86a7.78,7.78,0,0,0,7.78-7.78V393.83a7.78,7.78,0,0,0-7.78-7.78H50.55a12.49,12.49,0,0,0-12.49,12.49V433A12.5,12.5,0,0,0,50.55,445.52Z"/><path class="cls-8" d="M164.86,423.82H50.55a12.49,12.49,0,0,1-12.49-12.49V433a12.5,12.5,0,0,0,12.49,12.5H164.86a7.78,7.78,0,0,0,7.78-7.78V416A7.78,7.78,0,0,1,164.86,423.82Z"/><path class="cls-4" d="M297.67,88.49a15.46,15.46,0,0,1-15.23-12.84l-.11-.64a38.67,38.67,0,1,0-51.5,0l-.11.64a15.45,15.45,0,0,1-15.23,12.84,28.92,28.92,0,0,0-28.91,28.91v6.21a6.79,6.79,0,0,0,6.8,6.79h126.4a6.79,6.79,0,0,0,6.8-6.79V117.4A28.91,28.91,0,0,0,297.67,88.49ZM256.58,30.83a15.33,15.33,0,1,1-15.33,15.33A15.33,15.33,0,0,1,256.58,30.83Z"/><path class="cls-9" d="M297.67,88.49a15.46,15.46,0,0,1-15.23-12.84l-.11-.64A38.66,38.66,0,0,0,256.58,7.5a39.08,39.08,0,0,0-6.54.56c15.11,3.11,26.63,19,26.63,38.1,0,11.47-4.14,21.77-10.71,28.85l.09.64a16.34,16.34,0,0,0,4.37,9.2,11.58,11.58,0,0,0,8.26,3.64c13.24,0,24,13,24,28.91v6.21c0,3.75-2.51,6.79-5.63,6.79h22.77a6.79,6.79,0,0,0,6.8-6.79V117.4A28.91,28.91,0,0,0,297.67,88.49Z"/><path class="cls-10" d="M393.27,434h-42a6.11,6.11,0,0,0-6.12,6.12v41.95Z"/><path d="M279.41,46.16a22.86,22.86,0,1,0-4.14,13.1A22.62,22.62,0,0,0,279.41,46.16ZM263,50.66a7.82,7.82,0,1,1,1.43-4.5A7.8,7.8,0,0,1,263,50.66Z"/><path d="M400.41,78.63H292a8.2,8.2,0,0,1-1.17-1.52,46.17,46.17,0,1,0-68.52,0,7.59,7.59,0,0,1-1.17,1.52H112.75A22.83,22.83,0,0,0,90,101.43V333.28a7.5,7.5,0,0,0,15,0V101.43a7.81,7.81,0,0,1,7.8-7.8h75.16a36.22,36.22,0,0,0-5,7.44H126a13.64,13.64,0,0,0-13.62,13.62V333.28a7.5,7.5,0,0,0,15,0V116.07H179.1c0,.44,0,.89,0,1.33v6.21a14.31,14.31,0,0,0,14.3,14.29h126.4a14.31,14.31,0,0,0,14.3-14.29V117.4c0-.45,0-.89,0-1.33h51.72V223a7.5,7.5,0,0,0,15,0V114.69a13.64,13.64,0,0,0-13.62-13.62H330.21a37.18,37.18,0,0,0-5-7.44h75.18a7.81,7.81,0,0,1,7.8,7.8V489.2a7.81,7.81,0,0,1-7.8,7.8H112.75a7.81,7.81,0,0,1-7.8-7.8V453h7.44v22.92A13.64,13.64,0,0,0,126,489.56H345.19a7.47,7.47,0,0,0,5.3-2.2l48.08-48.08a7.48,7.48,0,0,0,2.2-5.52V253a7.5,7.5,0,0,0-15,0V426.48H351.3a13.63,13.63,0,0,0-13.62,13.62v34.46H127.39V453h37.47a15.3,15.3,0,0,0,13.41-8c97-.32,94.59,1.17,101-2.26l28.57-15.19.41-.23a13.37,13.37,0,0,0,6.67-10.9v-.07a.86.86,0,0,0,0-.16v-.08c0-.05,0-.1,0-.15v-.22h0v-.68a1.09,1.09,0,0,0,0-.18v-.05c0-.06,0-.13,0-.19v0a1.23,1.23,0,0,0,0-.19v0a1,1,0,0,0,0-.16v-.07s0-.09,0-.13V414s0-.08,0-.13,0-.06,0-.09,0-.07,0-.1a.59.59,0,0,1,0-.13s0-.05,0-.08,0-.09,0-.14a.29.29,0,0,1,0-.09l0-.14v0c0-.14-.06-.27-.1-.41h0a13.4,13.4,0,0,0-6.71-8.64c-27.7-14.72-30.48-17.46-37.63-17.46h-92a15.3,15.3,0,0,0-13.41-7.95h-93c.4-3.08-1-6.26,1.65-8.57a4.77,4.77,0,0,1,3.82-1.13l37.42,5.27c11.43,1.63,17-7.09,20-9.11a7.5,7.5,0,1,0-10.07-11.11c-4.39,3.58-5.21,5.75-7.8,5.37L79.44,354a19.81,19.81,0,0,0-22.56,19.6v4.95H50.56A20,20,0,0,0,30.71,396.1H26.47a19.68,19.68,0,0,0,0,39.36h4.24A20,20,0,0,0,50.55,453H90V489.2a22.83,22.83,0,0,0,22.8,22.8H400.41a22.83,22.83,0,0,0,22.8-22.8V101.43A22.83,22.83,0,0,0,400.41,78.63ZM319.08,122.9h-125c.47-2.2-2.15-12.22,6.27-20.64A21.3,21.3,0,0,1,215.49,96a22.89,22.89,0,0,0,22.62-19.08l.11-.64a7.51,7.51,0,0,0-2.4-6.86,31.18,31.18,0,1,1,41.51,0,7.5,7.5,0,0,0-2.39,6.87l.11.64A22.95,22.95,0,0,0,297.67,96a21.43,21.43,0,0,1,21.41,21.41Zm33.6,318.58h22.48c-29.6,29.6-20.1,20.09-22.48,22.47Zm-73.6-15.55v-20.3l19.08,10.15-.76.41Zm-15,4.13H180.14V401.5h83.94ZM21.79,415.78a4.69,4.69,0,0,1,4.68-4.68h4.09v9.36H26.47A4.69,4.69,0,0,1,21.79,415.78ZM45.56,433V398.54a5,5,0,0,1,5-5H164.86a.27.27,0,0,1,.28.25v44a.28.28,0,0,1-.28.26H50.55A5,5,0,0,1,45.56,433Z"/><text class="cls-11" transform="translate(140 303) scale(0.89 1)">SNIS</text><text class="cls-12" transform="translate(147 302) scale(0.89 1)">SNIS</text></svg>