<!-- icon666.com - MILLIONS vector ICONS FREE --><svg version="1.1" id="Capa_1" xmlns="http://www.w3.org/2000/svg" xmlns:xlink="http://www.w3.org/1999/xlink" x="0px" y="0px" viewBox="0 0 511.999 511.999" style="enable-background:new 0 0 511.999 511.999;" xml:space="preserve"><circle style="fill:#EF3A47;" cx="255.751" cy="90.417" r="82.636"></circle><path style="fill:#CE3043;" d="M255.749,7.783c-4.964,0-9.817,0.462-14.54,1.302c38.699,6.874,68.095,40.659,68.095,81.333 s-29.395,74.459-68.095,81.333c4.723,0.839,9.576,1.302,14.54,1.302c45.638,0,82.634-36.996,82.634-82.634 C338.382,44.78,301.386,7.783,255.749,7.783z"></path><rect x="407.075" y="290.716" style="fill:#A0A0A0;" width="73.017" height="213.495"></rect><rect x="407.075" y="290.716" style="fill:#878787;" width="30.082" height="213.495"></rect><rect x="31.905" y="290.716" style="fill:#A0A0A0;" width="73.017" height="213.495"></rect><path style="fill:#F9F1EF;" d="M321.772,140.106c-15.081,20.007-39.039,32.946-66.024,32.946s-50.943-12.938-66.024-32.946h-84.801 v364.109h302.154V140.106H321.772z"></path><rect x="377.996" y="140.103" style="fill:#DDDBDB;" width="29.08" height="364.108"></rect><rect x="151.144" y="378.998" style="fill:#565656;" width="209.705" height="32.657"></rect><g><rect x="157.943" y="289.472" style="fill:#00C1EC;" width="42.04" height="42.04"></rect><rect x="234.984" y="289.472" style="fill:#00C1EC;" width="42.04" height="42.04"></rect><rect x="312.015" y="289.472" style="fill:#00C1EC;" width="42.04" height="42.04"></rect><rect x="157.943" y="216.703" style="fill:#00C1EC;" width="42.04" height="42.04"></rect><rect x="234.984" y="216.703" style="fill:#00C1EC;" width="42.04" height="42.04"></rect><rect x="312.015" y="216.703" style="fill:#00C1EC;" width="42.04" height="42.04"></rect><rect x="256.001" y="411.657" style="fill:#00C1EC;" width="87.249" height="92.503"></rect></g><rect x="316.176" y="411.657" style="fill:#00AADE;" width="27.074" height="92.503"></rect><rect x="168.752" y="411.657" style="fill:#00C1EC;" width="87.249" height="92.503"></rect><rect x="228.927" y="411.657" style="fill:#00AADE;" width="27.074" height="92.503"></rect><g><rect x="7.521" y="250.335" style="fill:#565656;" width="97.407" height="40.381"></rect><rect x="407.075" y="250.335" style="fill:#565656;" width="97.407" height="40.381"></rect><path style="fill:#565656;" d="M173.649,99.721H77.274v40.385h112.45C181.058,128.609,175.337,114.777,173.649,99.721z"></path><path style="fill:#565656;" d="M337.848,99.721c-1.688,15.055-7.409,28.888-16.075,40.385h112.954V99.721H337.848z"></path></g><path style="fill:#F9F1EF;" d="M288.303,76.199h-18.335V57.863c0-2.817-2.283-5.101-5.101-5.101H246.63 c-2.817,0-5.101,2.283-5.101,5.101v18.335h-18.335c-2.817,0-5.101,2.283-5.101,5.101v18.237c0,2.817,2.283,5.101,5.101,5.101h18.335 v18.335c0,2.817,2.283,5.101,5.101,5.101h18.237c2.817,0,5.101-2.283,5.101-5.101v-18.335h18.335c2.817,0,5.1-2.283,5.1-5.101 V81.299C293.403,78.482,291.12,76.199,288.303,76.199z"></path><rect x="74.845" y="290.716" style="fill:#878787;" width="30.082" height="213.495"></rect><g><rect x="74.845" y="250.335" style="fill:#494949;" width="30.082" height="40.381"></rect><rect x="407.075" y="250.335" style="fill:#494949;" width="30.082" height="40.381"></rect></g><path d="M504.479,242.809h-89.882v-29.742c0-4.153-3.367-7.521-7.521-7.521s-7.521,3.367-7.521,7.521v37.262v40.385v205.979h-48.784 v-77.515h10.082c4.153,0,7.521-3.367,7.521-7.521v-32.657c0-4.153-3.367-7.521-7.521-7.521H151.146 c-4.153,0-7.521,3.367-7.521,7.521v32.657c0,4.153,3.367,7.521,7.521,7.521h10.082v77.515h-48.784V290.715V250.33V147.627h73.629 c15.252,18.603,36.773,30.105,60.469,32.479c0.003,0,0.005,0.001,0.008,0.001c0.718,0.072,1.438,0.137,2.16,0.193 c0.186,0.014,0.372,0.025,0.558,0.038c0.571,0.04,1.14,0.079,1.713,0.109c0.381,0.02,0.763,0.032,1.145,0.047 c0.402,0.016,0.803,0.035,1.205,0.046c0.803,0.021,1.609,0.033,2.419,0.033c0.808,0,1.614-0.012,2.419-0.033 c0.403-0.01,0.804-0.03,1.205-0.046c0.382-0.015,0.765-0.027,1.145-0.047c0.572-0.029,1.142-0.069,1.712-0.109 c0.187-0.013,0.373-0.024,0.559-0.038c0.722-0.055,1.441-0.12,2.159-0.193c0.003,0,0.006-0.001,0.009-0.001 c23.696-2.374,45.217-13.877,60.469-32.479h74.132v35.359c0,4.153,3.367,7.521,7.521,7.521s7.521-3.367,7.521-7.521v-35.359h20.128 c4.153,0,7.521-3.367,7.521-7.521V99.721c0-4.153-3.367-7.521-7.521-7.521h-88.845c0.012-0.594,0.023-1.187,0.023-1.783 c0-49.711-40.444-90.155-90.155-90.155c-17.849,0-35.105,5.208-49.905,15.062c-3.457,2.301-4.394,6.97-2.092,10.428 c2.301,3.457,6.971,4.394,10.428,2.092c12.322-8.203,26.696-12.54,41.569-12.54c41.418,0,75.114,33.696,75.114,75.114 c0,3.158-0.219,6.264-0.599,9.321c-0.139,1.126-0.304,2.247-0.493,3.363c-0.077,0.452-0.156,0.902-0.242,1.352 c-0.107,0.569-0.217,1.136-0.337,1.702c-0.186,0.868-0.383,1.733-0.6,2.59c-0.117,0.468-0.249,0.933-0.375,1.398 c-0.164,0.602-0.333,1.202-0.511,1.798c-0.124,0.415-0.248,0.831-0.379,1.244c-0.306,0.958-0.624,1.91-0.967,2.851 c-0.076,0.212-0.16,0.42-0.239,0.63c-0.334,0.891-0.681,1.777-1.048,2.652c-0.07,0.168-0.139,0.337-0.211,0.505 c-10.501,24.587-33.749,42.478-61.394,45.313c-0.034,0.003-0.068,0.007-0.102,0.01c-1.199,0.121-2.409,0.213-3.624,0.277 c-0.126,0.006-0.255,0.01-0.381,0.016c-1.197,0.057-2.4,0.091-3.611,0.091c-1.211,0-2.414-0.035-3.611-0.091 c-0.127-0.006-0.255-0.01-0.381-0.016c-1.215-0.064-2.425-0.155-3.624-0.277c-0.034-0.003-0.068-0.007-0.101-0.01 c-27.646-2.835-50.894-20.727-61.395-45.314c-0.071-0.166-0.139-0.334-0.21-0.501c-0.368-0.879-0.717-1.768-1.052-2.663 c-0.077-0.206-0.158-0.41-0.234-0.617c-0.344-0.945-0.664-1.899-0.97-2.861c-0.129-0.407-0.252-0.816-0.374-1.226 c-0.182-0.607-0.354-1.217-0.52-1.83c-0.124-0.456-0.253-0.91-0.368-1.369c-0.218-0.864-0.417-1.736-0.605-2.611 c-0.118-0.555-0.225-1.112-0.331-1.67c-0.088-0.465-0.17-0.932-0.251-1.399c-0.172-1.013-0.322-2.031-0.452-3.052 c-0.404-3.148-0.635-6.348-0.635-9.604c0-16.38,5.177-31.944,14.972-45.008c2.491-3.323,1.817-8.037-1.506-10.529 c-3.324-2.492-8.038-1.817-10.529,1.506c-11.761,15.689-17.978,34.372-17.978,54.031c0,0.596,0.011,1.19,0.023,1.783H77.278 c-4.153,0-7.521,3.367-7.521,7.521v40.385c0,4.153,3.367,7.521,7.521,7.521h20.128v95.183H7.521c-4.153,0-7.521,3.367-7.521,7.521 v40.385c0,4.153,3.367,7.521,7.521,7.521h16.864v50.683c0,4.153,3.367,7.521,7.521,7.521s7.521-3.367,7.521-7.521v-50.683h57.976 v198.459H39.426V379.002c0-4.153-3.367-7.521-7.521-7.521s-7.521,3.367-7.521,7.521v125.214c0,4.153,3.367,7.521,7.521,7.521h73.017 h302.154h73.017c4.153,0,7.521-3.367,7.521-7.521v-205.98h16.864c4.153,0,7.521-3.367,7.521-7.521V250.33 C512,246.177,508.633,242.809,504.479,242.809z M427.206,107.242v25.343h-20.128h-71.639c0.187-0.352,0.357-0.711,0.538-1.066 c0.063-0.121,0.123-0.245,0.186-0.367c0.448-0.885,0.883-1.777,1.302-2.675c0.215-0.458,0.427-0.918,0.634-1.38 c0.163-0.367,0.325-0.734,0.483-1.103c0.368-0.854,0.728-1.714,1.071-2.581c0.002-0.006,0.004-0.011,0.007-0.017 c0.393-0.996,0.763-2.003,1.121-3.016c0.026-0.075,0.053-0.15,0.079-0.226c1.462-4.173,2.625-8.486,3.464-12.912H427.206z M84.795,107.242h82.38c0.838,4.422,1.999,8.73,3.46,12.899c0.03,0.085,0.06,0.17,0.09,0.256c0.353,0.999,0.718,1.991,1.105,2.974 c0.007,0.017,0.013,0.034,0.019,0.05c0.34,0.861,0.698,1.715,1.063,2.563c0.161,0.376,0.327,0.751,0.493,1.126 c0.2,0.447,0.405,0.89,0.613,1.333c0.431,0.929,0.88,1.848,1.344,2.762c0.05,0.098,0.099,0.199,0.15,0.297 c0.185,0.36,0.358,0.726,0.548,1.084h-71.136H84.795V107.242z M31.905,283.194H15.041v-25.343h82.362v25.343H31.905z M335.731,496.642H263.52v-77.463h72.211V496.642z M158.667,386.521h194.667v17.616h-10.082h-87.252h-87.252h-10.082 L158.667,386.521L158.667,386.521z M248.48,419.179v77.463h-72.211v-77.463H248.48z M472.574,496.694h-57.976V298.235h57.976 V496.694z M496.959,283.194h-16.864h-65.496v-25.343h82.362L496.959,283.194L496.959,283.194z"></path><path d="M264.867,45.241H246.63c-6.959,0-12.622,5.662-12.622,12.622v10.815h-10.815c-6.959,0-12.621,5.662-12.621,12.622v18.237 c0,6.959,5.661,12.622,12.621,12.622h10.815v10.815c0,6.959,5.662,12.622,12.622,12.622h18.237c6.959,0,12.621-5.662,12.621-12.622 v-10.815h10.815c6.959,0,12.622-5.662,12.622-12.622V81.299c0-6.959-5.662-12.622-12.622-12.622h-10.815V57.863 C277.487,50.903,271.826,45.241,264.867,45.241z M285.883,83.718v13.397h-15.916c-4.153,0-7.521,3.367-7.521,7.521v15.916H249.05 v-15.916c0-4.153-3.367-7.521-7.521-7.521h-15.916V83.718h15.916c4.153,0,7.521-3.367,7.521-7.521V60.282h13.397v15.916 c0,4.153,3.367,7.521,7.521,7.521H285.883z"></path><path d="M199.986,281.951h-42.04c-4.153,0-7.521,3.367-7.521,7.521v42.04c0,4.153,3.367,7.521,7.521,7.521h42.04 c4.153,0,7.521-3.367,7.521-7.521v-42.04C207.507,285.318,204.139,281.951,199.986,281.951z M192.465,323.991h-26.999v-26.999 h26.999V323.991z"></path><path d="M277.02,281.951h-42.04c-4.153,0-7.521,3.367-7.521,7.521v42.04c0,4.153,3.367,7.521,7.521,7.521h42.04 c4.153,0,7.521-3.367,7.521-7.521v-42.04C284.541,285.318,281.173,281.951,277.02,281.951z M269.499,323.991H242.5v-26.999h26.999 V323.991z"></path><path d="M354.055,281.951h-42.04c-4.153,0-7.521,3.367-7.521,7.521v42.04c0,4.153,3.367,7.521,7.521,7.521h42.04 c4.153,0,7.521-3.367,7.521-7.521v-42.04C361.576,285.318,358.209,281.951,354.055,281.951z M346.535,323.991h-26.999v-26.999 h26.999V323.991z"></path><path d="M207.507,216.699c0-4.153-3.367-7.521-7.521-7.521h-42.04c-4.153,0-7.521,3.367-7.521,7.521v42.04 c0,4.153,3.367,7.521,7.521,7.521h42.04c4.153,0,7.521-3.367,7.521-7.521V216.699z M192.465,251.219h-26.999V224.22h26.999V251.219z "></path><path d="M284.541,216.699c0-4.153-3.367-7.521-7.521-7.521h-42.04c-4.153,0-7.521,3.367-7.521,7.521v42.04 c0,4.153,3.367,7.521,7.521,7.521h42.04c4.153,0,7.521-3.367,7.521-7.521V216.699z M269.499,251.219H242.5V224.22h26.999V251.219z"></path><path d="M361.576,216.699c0-4.153-3.367-7.521-7.521-7.521h-42.04c-4.153,0-7.521,3.367-7.521,7.521v42.04 c0,4.153,3.367,7.521,7.521,7.521h42.04c4.153,0,7.521-3.367,7.521-7.521V216.699z M346.535,251.219h-26.999V224.22h26.999V251.219z "></path></svg>