<!-- icon666.com - MILLIONS vector ICONS FREE --><svg version="1.1" id="Capa_1" xmlns="http://www.w3.org/2000/svg" xmlns:xlink="http://www.w3.org/1999/xlink" x="0px" y="0px" viewBox="0 0 504.123 504.123" style="enable-background:new 0 0 504.123 504.123;" xml:space="preserve"><path style="fill:#FFFFFF;" d="M64.977,496.246L64.977,496.246c31.508,0,56.714-25.206,56.714-56.714V304.049H8.263v135.483 C8.263,471.04,33.469,496.246,64.977,496.246z"></path><path style="fill:#183651;" d="M64.977,504.123c-35.446,0-64.591-29.145-64.591-64.591V304.049c0-4.726,3.151-7.877,7.877-7.877 h114.215c4.726,0,7.877,3.151,7.877,7.877v135.483C130.355,474.978,101.211,504.123,64.977,504.123z M16.14,311.926v127.606 c0,26.782,22.055,48.837,48.837,48.837s48.837-22.055,48.837-48.837V311.926H16.14z"></path><path style="fill:#FCBD5E;" d="M64.977,464.738c-14.178,0-25.206-11.815-25.206-25.206V335.557h51.2v103.975 C90.971,452.923,79.155,464.738,64.977,464.738z"></path><path style="fill:#2AA0DA;" d="M496.632,7.877v431.655c0,31.508-25.206,56.714-56.714,56.714H64.977 c31.508,0,56.714-25.206,56.714-56.714V7.877H496.632z"></path><path style="fill:#183651;" d="M439.918,504.123H64.977c-4.726,0-7.877-3.151-7.877-7.877s3.151-7.877,7.877-7.877 c26.782,0,48.837-22.055,48.837-48.837V7.877c0-4.726,3.151-7.877,7.877-7.877h374.154c4.726,0,7.877,3.151,7.877,7.877v431.655 C504.509,474.978,475.365,504.123,439.918,504.123z M107.512,488.369h332.406c26.782,0,48.837-22.055,48.837-48.837V15.754h-358.4 v423.778C130.355,459.225,121.691,476.554,107.512,488.369z"></path><path style="fill:#FFFFFF;" d="M150.048,464.738c2.363-7.877,3.938-16.542,3.938-25.206V39.385h311.138v400.148 c0,14.178-11.028,25.206-25.206,25.206H150.048z"></path><rect x="183.131" y="135.483" style="fill:#CFD0D1;" width="35.446" height="97.674"></rect><rect x="253.235" y="68.529" style="fill:#FCBD5E;" width="35.446" height="164.628"></rect><rect x="323.34" y="150.449" style="fill:#4EBD9E;" width="35.446" height="81.92"></rect><g><rect x="393.445" y="94.523" style="fill:#F05F50;" width="35.446" height="138.634"></rect><path style="fill:#F05F50;" d="M303.648,419.84c13.391-13.391,21.268-31.508,21.268-51.2h-72.468L303.648,419.84z"></path></g><path style="fill:#FCBD5E;" d="M252.448,296.172c-40.172,0-72.468,32.295-72.468,72.468c0,19.692,7.877,37.809,21.268,51.2 l51.2-51.2V296.172z"></path><path style="fill:#4EBD9E;" d="M324.128,368.64c0-40.172-32.295-72.468-72.468-72.468v72.468H324.128z"></path><path style="fill:#E1E6E8;" d="M252.448,441.108c19.692,0,37.809-7.877,51.2-21.268l-51.2-51.2l-51.2,51.2 C213.851,433.231,231.968,441.108,252.448,441.108z"></path><g><rect x="361.937" y="307.2" style="fill:#183651;" width="87.434" height="15.754"></rect><rect x="361.937" y="356.825" style="fill:#183651;" width="87.434" height="15.754"></rect><rect x="361.937" y="406.449" style="fill:#183651;" width="15.754" height="15.754"></rect><rect x="398.171" y="406.449" style="fill:#183651;" width="15.754" height="15.754"></rect><rect x="433.617" y="406.449" style="fill:#183651;" width="15.754" height="15.754"></rect></g></svg>