<!-- icon666.com - MILLIONS vector ICONS FREE --><svg version="1.1" id="Layer_1" xmlns="http://www.w3.org/2000/svg" xmlns:xlink="http://www.w3.org/1999/xlink" x="0px" y="0px" viewBox="0 0 512 512" style="enable-background:new 0 0 512 512;" xml:space="preserve"><g><polygon style="fill: rgb(219, 77, 77);" points="431.12,512 382.8,463.68 448.8,397.68 498.16,447.04 " fill="#FF5F5F"></polygon><rect x="341.617" y="351.998" transform="matrix(-0.7071 0.7071 -0.7071 -0.7071 881.5287 386.2147)" style="fill: rgb(219, 77, 77);" width="38.32" height="47.36" fill="#FF5F5F"></rect></g><g><rect x="350.007" y="384.51" transform="matrix(-0.7071 0.7071 -0.7071 -0.7071 968.1555 422.1568)" style="fill: rgb(0, 0, 0);" width="93.279" height="54.159" fill="#002833"></rect><circle style="fill: rgb(0, 0, 0);" cx="219.6" cy="205.76" r="205.76" fill="#002833"></circle></g><circle style="fill: rgb(255, 255, 255);" cx="219.6" cy="205.76" r="184.24" fill="#EFEFEF"></circle><rect x="140.88" y="201.28" style="fill: rgb(219, 77, 77);" width="26.24" height="71.76" fill="#FF5F5F"></rect><g><rect x="97.2" y="230.56" style="fill: rgb(35, 206, 225);" width="26.24" height="42.4" fill="#8AD5DD"></rect><rect x="184.64" y="161.36" style="fill: rgb(35, 206, 225);" width="26.24" height="111.6" fill="#8AD5DD"></rect></g><rect x="228.32" y="89.6" style="fill: rgb(219, 77, 77);" width="26.24" height="183.36" fill="#FF5F5F"></rect><rect x="272.08" y="126.64" style="fill: rgb(35, 206, 225);" width="26.24" height="146.4" fill="#8AD5DD"></rect><rect x="315.76" y="185.6" style="fill: rgb(219, 77, 77);" width="26.24" height="87.68" fill="#FF5F5F"></rect></svg>