<!-- icon666.com - MILLIONS vector ICONS FREE --><svg version="1.1" id="Capa_1" xmlns="http://www.w3.org/2000/svg" xmlns:xlink="http://www.w3.org/1999/xlink" x="0px" y="0px" viewBox="0 0 512 512" style="enable-background:new 0 0 512 512;" xml:space="preserve"><path style="fill:#57A4FF;" d="M397.919,312.289l-28.53-28.53H142.611c-11.142,11.142-17.388,17.389-28.53,28.53v167.81h283.838 V312.289z"></path><rect x="204.74" y="427.649" style="fill:#006DF0;" width="29.72" height="29.72"></rect><rect x="184.74" y="427.649" style="fill:#FFB655;" width="29.72" height="29.72"></rect><rect x="184.74" y="427.649" style="fill:#FF7956;" width="20" height="29.72"></rect><g><circle style="fill:#FFDAAA;" cx="256" cy="193.63" r="90.13"></circle><circle style="fill:#FFDAAA;" cx="390.73" cy="104.149" r="72.25"></circle></g><path style="fill:#91DC5A;" d="M481.629,176.395H344.472c1.081,5.58,1.654,11.342,1.654,17.238 c0,42.556-29.497,78.218-69.159,87.669v2.457h92.422l28.53,28.53v41.471H504.5V199.266L481.629,176.395z"></path><path style="fill:#FF7956;" d="M30.371,176.395h137.157c-1.081,5.58-1.654,11.342-1.654,17.238 c0,42.556,29.497,78.218,69.159,87.669v2.457h-92.422l-28.53,28.53v41.471H7.5V199.266L30.371,176.395z"></path><path style="fill:#006DF0;" d="M182.611,283.758h-40c-11.142,11.142-17.388,17.389-28.53,28.53v167.811h40V312.288 C165.223,301.147,171.469,294.9,182.611,283.758z"></path><g><polygon style="fill:#4CBA68;" points="409.389,283.758 369.389,283.758 397.919,312.288 397.919,353.759 437.919,353.759 437.919,312.288 "></polygon><path style="fill:#4CBA68;" d="M386.126,193.632c0-5.896-0.573-11.658-1.654-17.238h-40c1.081,5.58,1.654,11.342,1.654,17.238 c0,42.556-29.497,78.218-69.159,87.669v2.457h40v-2.457C356.629,271.85,386.126,236.188,386.126,193.632z"></path></g><polygon style="fill:#FF3F62;" points="70.371,176.395 30.371,176.395 7.5,199.266 7.5,353.759 47.5,353.759 47.5,199.266 "></polygon><circle style="fill:#FFDAAA;" cx="121.27" cy="104.149" r="72.25"></circle><g><path style="fill:#FF9478;" d="M205.874,193.632c0-42.901,29.977-78.798,70.126-87.895c-6.433-1.458-13.126-2.231-20-2.231 c-49.775,0-90.126,40.351-90.126,90.126s40.351,90.126,90.126,90.126c6.874,0,13.567-0.773,20-2.231 C235.851,272.43,205.874,236.533,205.874,193.632z"></path><path style="fill:#FF9478;" d="M358.486,104.146c0-32.96,22.079-60.744,52.248-69.421c-6.354-1.827-13.058-2.827-20-2.827 c-39.901,0-72.248,32.346-72.248,72.248c0,39.901,32.346,72.248,72.248,72.248c6.942,0,13.646-0.999,20-2.827 C380.565,164.891,358.486,137.106,358.486,104.146z"></path><path style="fill:#FF9478;" d="M89.019,104.146c0-32.96,22.079-60.744,52.248-69.421c-6.354-1.827-13.058-2.827-20-2.827 c-39.901,0-72.248,32.346-72.248,72.248c0,39.901,32.346,72.248,72.248,72.248c6.942,0,13.646-0.999,20-2.827 C111.098,164.891,89.019,137.106,89.019,104.146z"></path></g><g><path style="fill:#1D1D1F;" d="M177.238,464.867h44.72v-44.72h-44.72V464.867z M192.238,435.147h14.72v14.72h-14.72V435.147z"></path><rect x="160.29" y="305.439" style="fill:#1D1D1F;" width="15" height="15"></rect><rect x="185.29" y="305.439" style="fill:#1D1D1F;" width="15" height="15"></rect><rect x="210.29" y="305.439" style="fill:#1D1D1F;" width="15" height="15"></rect><rect x="419.87" y="199.729" style="fill:#1D1D1F;" width="15" height="15"></rect><rect x="369.87" y="199.729" style="fill:#1D1D1F;" width="15" height="15"></rect><rect x="394.87" y="199.729" style="fill:#1D1D1F;" width="15" height="15"></rect></g><g><path style="fill:#FFFFFF;" d="M256,134.906c4.455,0,8.894,0.5,13.19,1.485l3.354-14.621c-5.396-1.237-10.962-1.864-16.544-1.864 V134.906z"></path><path style="fill:#FFFFFF;" d="M283.178,125.078l-5.531,13.943c4.109,1.63,8.045,3.736,11.698,6.261l8.527-12.34 C293.285,129.772,288.342,127.127,283.178,125.078z"></path><path style="fill:#FFFFFF;" d="M306.516,139.932l-10.279,10.924c11.924,11.221,18.49,26.412,18.49,42.777 c0,18.648-8.564,35.775-23.497,46.991l9.008,11.994c18.741-14.075,29.489-35.575,29.489-58.985 C329.727,173.386,321.267,153.813,306.516,139.932z"></path></g><path style="fill:#1D1D1F;" d="M214.624,233.617l-10.871,10.336c13.93,14.649,32.729,22.717,52.937,22.717v-15 C240.632,251.671,225.693,245.259,214.624,233.617z"></path><g><rect x="366.66" y="405.859" style="fill:#FFFFFF;" width="15" height="15"></rect><rect x="366.66" y="430.859" style="fill:#FFFFFF;" width="15" height="15"></rect><rect x="366.66" y="328.499" style="fill:#FFFFFF;" width="15" height="67.36"></rect></g><g><path style="fill:#1D1D1F;" d="M307.939,276.259c27.427-17.302,45.687-47.87,45.687-82.626c0-53.831-43.795-97.626-97.626-97.626 s-97.626,43.795-97.626,97.626c0,34.756,18.26,65.323,45.687,82.626h-64.556l-32.924,32.923V487.6h298.838V309.182l-32.924-32.923 H307.939z M173.374,193.633c0-45.561,37.065-82.626,82.626-82.626s82.626,37.065,82.626,82.626S301.561,276.259,256,276.259 S173.374,239.193,173.374,193.633z M390.419,472.6h-32.925V363.033h-15v109.566H169.506V363.033h-15v109.566h-32.925V315.395 l24.137-24.136h220.564l24.137,24.136L390.419,472.6L390.419,472.6z"></path><rect x="317.42" y="373.169" style="fill:#1D1D1F;" width="15" height="50.17"></rect><path style="fill:#1D1D1F;" d="M365.265,139.911c-11.303-8.174-18.05-21.367-18.05-35.292h-15c0,18.724,9.068,36.46,24.259,47.446 L365.265,139.911z"></path></g><g><path style="fill:#FFFFFF;" d="M411.204,66.204c3.767,2.012,7.215,4.565,10.249,7.591l10.59-10.625 c-4.075-4.062-8.708-7.492-13.771-10.196L411.204,66.204z"></path><path style="fill:#FFFFFF;" d="M390.733,46.101v15c4.3,0,8.543,0.623,12.611,1.854l4.34-14.359 C402.208,46.939,396.505,46.101,390.733,46.101z"></path><path style="fill:#FFFFFF;" d="M412.037,142.577l7.355,13.072c18.418-10.363,29.859-29.917,29.859-51.03 c0-11.682-3.434-22.962-9.929-32.621l-12.447,8.371c4.825,7.175,7.376,15.561,7.376,24.25 C434.252,120.322,425.739,134.867,412.037,142.577z"></path><rect x="477.95" y="212.259" style="fill:#FFFFFF;" width="15" height="44.08"></rect><rect x="477.95" y="291.339" style="fill:#FFFFFF;" width="15" height="15"></rect><rect x="477.95" y="266.339" style="fill:#FFFFFF;" width="15" height="15"></rect></g><g><path style="fill:#1D1D1F;" d="M484.736,168.895h-47.532c20.132-14.49,33.277-38.105,33.277-64.747 c0-43.974-35.774-79.748-79.748-79.748c-21.084,0-40.962,8.152-55.972,22.954c-14.991,14.784-23.425,34.514-23.747,55.556 l14.998,0.23c0.539-35.146,29.572-63.74,64.721-63.74c35.702,0,64.748,29.046,64.748,64.748s-29.046,64.747-64.748,64.747 c-8.306,0-16.419-1.567-24.112-4.658l-5.592,13.92c9.48,3.808,19.474,5.738,29.704,5.738h87.79L497,202.371v143.888h-23.418 V239.942h-15v106.317h-40.663v15H512V196.158L484.736,168.895z"></path><path style="fill:#1D1D1F;" d="M53.418,239.942h-15v106.317H15V202.371l18.477-18.478h84.051v-0.094 c1.24,0.058,2.485,0.095,3.739,0.095c10.23,0,20.224-1.931,29.704-5.738l-5.592-13.92c-7.693,3.091-15.807,4.658-24.112,4.658 c-35.702,0-64.747-29.045-64.747-64.747s29.045-64.748,64.747-64.748c35.148,0,64.182,28.594,64.721,63.74l14.998-0.23 c-0.322-21.042-8.756-40.771-23.747-55.556c-15.01-14.802-34.888-22.954-55.972-22.954c-43.973,0-79.747,35.774-79.747,79.748 c0,26.642,13.146,50.257,33.277,64.747H27.264L0,196.158v165.101h94.081v-15H53.418V239.942z"></path></g><g><rect x="127.87" y="195.74" style="fill:#FFFFFF;" width="15" height="15"></rect><rect x="102.87" y="195.74" style="fill:#FFFFFF;" width="15" height="15"></rect><rect x="48.789" y="195.74" style="fill:#FFFFFF;" width="44.08" height="15"></rect></g><path style="fill:#1D1D1F;" d="M62.748,104.619c0,18.724,9.068,36.46,24.259,47.446l8.791-12.154 c-11.303-8.174-18.05-21.367-18.05-35.292H62.748z"></path><g><path style="fill:#FFFFFF;" d="M162.576,63.17c-4.075-4.062-8.708-7.492-13.771-10.196l-7.068,13.23 c3.767,2.012,7.215,4.565,10.249,7.591L162.576,63.17z"></path><path style="fill:#FFFFFF;" d="M121.267,61.101c4.3,0,8.543,0.623,12.611,1.854l4.34-14.359c-5.477-1.655-11.18-2.494-16.951-2.494 L121.267,61.101L121.267,61.101z"></path><path style="fill:#FFFFFF;" d="M179.785,104.619c0-11.682-3.434-22.962-9.929-32.621l-12.447,8.371 c4.825,7.175,7.376,15.561,7.376,24.25c0,15.703-8.513,30.247-22.215,37.958l7.355,13.072 C168.344,145.286,179.785,125.732,179.785,104.619z"></path></g></svg>