<svg id="Anverso" xmlns="http://www.w3.org/2000/svg" viewBox="0 0 47.24 53.56"><defs><style>.cls-1{fill:#cc1f24;}.cls-2{fill:#1a7941;}.cls-3{fill:#f0bd19;}.cls-4{fill:#eed820;}.cls-5{fill:#ce2829;}.cls-6{fill:#fff;}.cls-7{fill:#d9d6d6;}.cls-8{fill:#dc5429;}.cls-9{fill:#5b2f7a;}.cls-10{fill:#3c3771;}.cls-11{fill:#025c9a;}</style></defs><title>Mesa de trabajo 3logo</title><circle class="cls-1" cx="16.97" cy="10.89" r="0.94"/><circle class="cls-2" cx="30.22" cy="8.44" r="0.94"/><circle class="cls-3" cx="21.87" cy="3.69" r="1.19"/><path class="cls-2" d="M23.52,28a13.1,13.1,0,0,1-5.79-1.28.67.67,0,0,0-.88.28l-.42.71a.55.55,0,0,0,.24.76,14.12,14.12,0,0,0,6.67,1.42h.18l.86,0L24.26,28C24,28,23.77,28,23.52,28Z"/><path class="cls-4" d="M23.51,28a13.1,13.1,0,0,1-5.82-1.29.64.64,0,0,0-.84.27l-.37.66a13.4,13.4,0,0,0,7,1.6h.18c.28,0,.38,0,.67,0L24.25,28C24,28,23.76,28,23.51,28Z"/><path class="cls-1" d="M23.51,28a13,13,0,0,1-5.87-1.32.59.59,0,0,0-.76.25l0,.07a13.28,13.28,0,0,0,6.94,1.6h.52L24.25,28C24,28,23.76,28,23.51,28Z"/><path class="cls-5" d="M27.81,27.25,28.33,29a12.76,12.76,0,0,0,1.33-.54l-.75-1.67A11.55,11.55,0,0,1,27.81,27.25Z"/><path class="cls-4" d="M25.39,27.87l.19,1.84c.48-.07.88-.16,1.35-.27l-.34-1.81A11.58,11.58,0,0,1,25.39,27.87Z"/><path class="cls-6" d="M24.29,28l1.07-.12.18,1.76a11.25,11.25,0,0,1-1.15.16Z"/><path class="cls-7" d="M25.32,28l.17,1.68a9.12,9.12,0,0,1-1.06.14l-.1-1.71c.33,0,.66-.06,1-.11m.07-.1c-.37.06-.76.1-1.14.13l.1,1.88a10.11,10.11,0,0,0,1.23-.17l-.19-1.84Z"/><path class="cls-8" d="M26.59,27.63l.34,1.81c.5-.13.91-.26,1.4-.43l-.52-1.76A12.34,12.34,0,0,1,26.59,27.63Z"/><path class="cls-9" d="M28.91,26.8l.75,1.67A13.34,13.34,0,0,0,31,27.78l-.9-1.64A12.81,12.81,0,0,1,28.91,26.8Z"/><path class="cls-2" d="M32.88,25.51l-.32-.36a.67.67,0,0,0-.94-.08l-.5.39,1,1.54c.26-.19.39-.31.63-.51A.69.69,0,0,0,32.88,25.51Z"/><path class="cls-10" d="M32.16,27l-1-1.54-.37.27c-.2.14-.41.28-.63.41L31,27.78c.3-.18.55-.36.84-.56Z"/><path class="cls-11" d="M18.07,22.79A3.88,3.88,0,0,1,17,22.35c0-.1-.33-1.31-.33-1.31s0-.49.41-.41a1,1,0,0,1,.5.52A13.37,13.37,0,0,1,18.07,22.79Z"/><path class="cls-11" d="M16.81,22.29a5.9,5.9,0,0,1-1.27-.77c-.06-.14-.39-1.67-.39-1.67a.31.31,0,0,1,.46-.27,2.34,2.34,0,0,1,.57.69A19.61,19.61,0,0,1,16.81,22.29Z"/><path class="cls-11" d="M15.32,21.37a10.09,10.09,0,0,1-1.1-.93,5.46,5.46,0,0,1-.67-1.31c0-.22-.1-.7.4-.65a1.37,1.37,0,0,1,.56.53C14.67,19.3,15.32,21.37,15.32,21.37Z"/><path class="cls-11" d="M24.57,26.74a14.19,14.19,0,0,1-8.16-2.12,10.7,10.7,0,0,1-3-2.6,13,13,0,0,1-1.67-2.78.42.42,0,0,1,.22-.51.56.56,0,0,1,.59.18c.12.16,2.77,4,6.8,4.63a1.27,1.27,0,0,0,1-.26c.09-.1.31-.32,0-.88a8.12,8.12,0,0,0-.68-.92A2.35,2.35,0,0,1,19,19.66a1.82,1.82,0,0,1,.26-.75c0-.06.21-.32.46-.29,0,0,.28.05.4.53a2.75,2.75,0,0,0,.61,1.19,5.55,5.55,0,0,0,1,1,7.82,7.82,0,0,1,2.67,3.9,8.57,8.57,0,0,0,.13,1.45C24.6,26.71,24.61,26.73,24.57,26.74Z"/><path class="cls-11" d="M30.1,21.13a3.66,3.66,0,0,0,.92-.72c0-.11-.05-1.35-.05-1.35s-.16-.47-.51-.28a1.05,1.05,0,0,0-.34.64A14.48,14.48,0,0,0,30.1,21.13Z"/><path class="cls-11" d="M31.17,20.3a5.81,5.81,0,0,0,1-1.1c0-.15-.09-1.7-.09-1.7a.31.31,0,0,0-.52-.13,2.37,2.37,0,0,0-.36.81A20,20,0,0,0,31.17,20.3Z"/><path class="cls-11" d="M32.35,19a12,12,0,0,0,.79-1.21,5.56,5.56,0,0,0,.28-1.45c0-.21-.1-.7-.57-.51a1.43,1.43,0,0,0-.38.67C32.39,16.83,32.35,19,32.35,19Z"/><path class="cls-11" d="M24.58,25.21a7,7,0,0,0,.14,1.5.41.41,0,0,0,.24,0,14.27,14.27,0,0,0,7.24-4.32,10.35,10.35,0,0,0,2.17-3.34A13,13,0,0,0,35.2,16a.41.41,0,0,0-.35-.42.55.55,0,0,0-.52.34c-.07.19-1.54,4.61-5.24,6.34a1.25,1.25,0,0,1-1.06,0c-.11-.08-.39-.23-.22-.85a6,6,0,0,1,.39-1.08,2.33,2.33,0,0,0,.1-1.92,1.81,1.81,0,0,0-.46-.65.54.54,0,0,0-.53-.15s-.25.13-.23.62a2.68,2.68,0,0,1-.26,1.31,5.1,5.1,0,0,1-.71,1.22,7.52,7.52,0,0,0-1.52,4.44"/><path class="cls-1" d="M16.45,7.3S14,10.93,13.56,13.22a6.25,6.25,0,0,0-.13,2.24,8.64,8.64,0,0,0,2.92,4,6.51,6.51,0,0,0,2.06,1.13,16.13,16.13,0,0,1-.22-3.85c.6-4.91,2.11-7.06,2.11-7.06S17.55,14,15.76,13C14.56,12.37,16.45,7.3,16.45,7.3Z"/><path class="cls-3" d="M24.26,22.79a17.43,17.43,0,0,1,1.37-2.74c.55-.73,2.45-4.4,2.4-7a11.09,11.09,0,0,0-1.17-4.93c-.57-1.16-2-4.07-3.42-6.5.51,1.12,1.52,3.17.7,4.79-.22.29-1,1.35-2.34.22A13.14,13.14,0,0,1,19.26,3c.49,1.16,3.12,6.66,2.21,10.4a23.32,23.32,0,0,1-.86,3.55c-.17.75-.45,2.05.63,2.85C21.9,20.21,23.72,21.29,24.26,22.79Z"/><path class="cls-2" d="M30.92,4.81s2.53,3.57,3,5.84a6.36,6.36,0,0,1,.18,2.24A8.62,8.62,0,0,1,31.29,17a6.35,6.35,0,0,1-2,1.17,12.42,12.42,0,0,0,.35-3.87c-.71-4.89-2.48-7-2.48-7s2.84,4.19,4.61,3.19C32.92,9.83,30.92,4.81,30.92,4.81Z"/><path class="cls-11" d="M2.23,46.34,2.05,47H1.76L2.37,45h.36L3.33,47H3l-.19-.69Zm.54-.26-.22-.85-.24.85Z"/><path class="cls-11" d="M4.88,46.23v.21a.63.63,0,0,1-.68.63.61.61,0,0,1-.66-.63,1.55,1.55,0,0,1,0-.21V45H3.8v1.28a.91.91,0,0,0,0,.17c0,.25.15.42.39.42a.39.39,0,0,0,.4-.42.91.91,0,0,0,0-.17V45h.27Z"/><path class="cls-11" d="M6,45.21V47H5.74V45.21h-.6V45H6.62v.26Z"/><path class="cls-11" d="M8.39,46c0,.64-.3,1.08-.83,1.08s-.83-.44-.83-1.08.31-1.08.83-1.08S8.39,45.35,8.39,46ZM8.1,46c0-.52-.2-.83-.54-.83S7,45.47,7,46s.2.83.53.83S8.1,46.51,8.1,46Z"/><path class="cls-11" d="M10.06,47h-.3a1.87,1.87,0,0,1-.09-.49c0-.22-.09-.36-.25-.37H9V47H8.75V45h.6a.86.86,0,0,1,.23,0,.48.48,0,0,1,.44.55.5.5,0,0,1-.32.5.54.54,0,0,1,.24.47A1.23,1.23,0,0,0,10.06,47Zm-.75-1.12h.16c.15,0,.26-.12.26-.34s-.09-.31-.24-.33l-.16,0H9v.7Z"/><path class="cls-11" d="M10.37,47V45h.28V47Z"/><path class="cls-11" d="M12.57,46c0,.62-.31,1-.71,1.05H11.1V45h.55a.75.75,0,0,1,.22,0C12.27,45,12.57,45.34,12.57,46Zm-.3,0c0-.44-.17-.69-.44-.74l-.2,0h-.26v1.55h.45C12.09,46.7,12.27,46.43,12.27,46Z"/><path class="cls-11" d="M13.16,46.34,13,47h-.3L13.3,45h.36l.6,2.08H14l-.19-.69Zm.54-.26-.22-.85-.24.85Z"/><path class="cls-11" d="M16,46c0,.62-.3,1-.7,1.05h-.76V45h.55a.82.82,0,0,1,.22,0C15.71,45,16,45.34,16,46Zm-.29,0c0-.44-.17-.69-.45-.74l-.19,0h-.26v1.55h.44C15.53,46.7,15.71,46.43,15.71,46Z"/><path class="cls-11" d="M18.38,46c0,.62-.3,1-.7,1.05h-.77V45h.56a.82.82,0,0,1,.22,0C18.09,45,18.38,45.34,18.38,46Zm-.29,0c0-.44-.18-.69-.45-.74l-.2,0h-.25v1.55h.44C17.91,46.7,18.09,46.43,18.09,46Z"/><path class="cls-11" d="M19.93,47H18.74V45h1.17v.26H19v.65h.82v.26H19v.64h.91Z"/><path class="cls-11" d="M22,45.54h-.29c0-.23-.13-.38-.33-.38a.27.27,0,0,0-.29.29c0,.2.1.29.37.37a.63.63,0,0,1,.56.65.59.59,0,0,1-.62.6.63.63,0,0,1-.68-.64H21c0,.25.19.39.39.39a.31.31,0,0,0,.33-.31c0-.22-.11-.33-.39-.4s-.54-.25-.54-.61a.57.57,0,0,1,.59-.59C21.75,44.91,21.94,45.18,22,45.54Z"/><path class="cls-11" d="M23.67,46.23v.21a.63.63,0,0,1-.67.63.61.61,0,0,1-.67-.63,1.55,1.55,0,0,1,0-.21V45h.27v1.28a.91.91,0,0,0,0,.17c0,.25.15.42.4.42s.38-.17.39-.42a.91.91,0,0,0,0-.17V45h.27Z"/><path class="cls-11" d="M25.35,45.58a.56.56,0,0,1-.45.62h-.53V47H24.1V45h.56a.93.93,0,0,1,.24,0A.54.54,0,0,1,25.35,45.58Zm-.29,0c0-.22-.1-.32-.22-.35h-.47v.72h.47C25,45.9,25.06,45.8,25.06,45.58Z"/><path class="cls-11" d="M26.84,47H25.65V45h1.17v.26h-.89v.65h.82v.26h-.82v.64h.91Z"/><path class="cls-11" d="M28.49,47h-.3a1.87,1.87,0,0,1-.09-.49c0-.22-.09-.36-.25-.37h-.39V47h-.27V45h.59A1,1,0,0,1,28,45c.25,0,.43.19.43.55a.49.49,0,0,1-.32.5.54.54,0,0,1,.24.47A1.23,1.23,0,0,0,28.49,47Zm-.74-1.12h.15c.15,0,.26-.12.26-.34s-.09-.31-.24-.33l-.16,0h-.3v.7Z"/><path class="cls-11" d="M29.25,47,28.65,45h.29l.49,1.83.5-1.83h.29L29.6,47Z"/><path class="cls-11" d="M30.47,47V45h.27V47Z"/><path class="cls-11" d="M32.35,45.54h-.29c0-.23-.13-.38-.33-.38a.27.27,0,0,0-.29.29c0,.2.1.29.37.37a.63.63,0,0,1,.56.65.59.59,0,0,1-.61.6.64.64,0,0,1-.69-.64h.29a.4.4,0,0,0,.4.39.3.3,0,0,0,.32-.31c0-.22-.11-.33-.39-.4s-.54-.25-.54-.61a.57.57,0,0,1,.59-.59C32.12,44.91,32.31,45.18,32.35,45.54Z"/><path class="cls-11" d="M32.71,47V45H33V47Z"/><path class="cls-11" d="M35,46c0,.64-.3,1.08-.83,1.08s-.83-.44-.83-1.08.3-1.08.83-1.08S35,45.35,35,46Zm-.29,0c0-.52-.2-.83-.54-.83s-.53.31-.53.83.2.83.53.83S34.69,46.51,34.69,46Zm-.63-1.18.15-.3h.25l-.24.3Z"/><path class="cls-11" d="M36.37,47l-.76-1.71c0,.23,0,.5,0,.72v1h-.28V45h.39l.77,1.73c0-.24,0-.51,0-.73V45h.27V47Z"/><path class="cls-11" d="M39.23,46c0,.62-.3,1-.7,1.05h-.77V45h.56a.82.82,0,0,1,.22,0C38.94,45,39.23,45.34,39.23,46Zm-.29,0c0-.44-.17-.69-.45-.74l-.19,0H38v1.55h.44C38.76,46.7,38.94,46.43,38.94,46Z"/><path class="cls-11" d="M40.78,47H39.59V45h1.17v.26h-.89v.65h.82v.26h-.82v.64h.91Z"/><path class="cls-11" d="M42.86,47H41.67V45H42v1.81h.91Z"/><path class="cls-11" d="M43.47,46.34l-.18.69H43L43.61,45H44l.6,2.08h-.3l-.19-.69Zm.54-.26-.22-.85-.24.85Z"/><path class="cls-11" d="M3.09,48.94H2.8c0-.23-.13-.37-.33-.37a.26.26,0,0,0-.29.28c0,.2.1.3.37.37s.56.3.56.65a.59.59,0,0,1-.61.6.62.62,0,0,1-.68-.64H2.1c0,.25.2.39.4.39a.3.3,0,0,0,.32-.31c0-.21-.1-.32-.38-.4s-.55-.24-.55-.6a.58.58,0,0,1,.6-.6C2.87,48.31,3.05,48.58,3.09,48.94Z"/><path class="cls-11" d="M4.55,50.43H3.36V48.35H4.53v.27H3.64v.64h.82v.26H3.64v.65h.91Z"/><path class="cls-11" d="M6.22,49.4v1H6v-.35l-.07.2a.52.52,0,0,1-.44.19c-.49,0-.78-.44-.78-1.07s.34-1.09.83-1.09a.7.7,0,0,1,.72.71v0H6v0c0-.28-.18-.45-.45-.45S5,48.9,5,49.39s.2.83.51.83.44-.22.46-.55H5.57V49.4Z"/><path class="cls-11" d="M7.88,49.63v.21a.62.62,0,0,1-.67.63.61.61,0,0,1-.67-.63,1.55,1.55,0,0,1,0-.21V48.35h.28V49.8c0,.25.15.42.4.42s.38-.17.4-.42V48.35h.27Z"/><path class="cls-11" d="M9.52,50.43h-.3a2.25,2.25,0,0,1-.08-.49c0-.22-.09-.36-.25-.37h-.4v.87H8.22V48.35h.59a.9.9,0,0,1,.24,0,.56.56,0,0,1,.12,1.05.54.54,0,0,1,.23.48A1.18,1.18,0,0,0,9.52,50.43Zm-.74-1.12h.16c.15,0,.26-.12.26-.34s-.09-.31-.24-.33H8.49v.69Z"/><path class="cls-11" d="M9.75,50.43V48.35H10v2.08Z"/><path class="cls-11" d="M11.85,49.37c0,.62-.3,1-.7,1.05h-.76V48.35h.55a.82.82,0,0,1,.22,0C11.56,48.42,11.85,48.74,11.85,49.37Zm-.29,0c0-.44-.17-.69-.45-.74h-.45v1.55h.25a.53.53,0,0,0,.19,0C11.38,50.11,11.56,49.83,11.56,49.37Z"/><path class="cls-11" d="M12.36,49.74l-.19.69h-.29l.62-2.08h.35l.61,2.08h-.3L13,49.74Zm.54-.26-.23-.85-.24.85Z"/><path class="cls-11" d="M15.11,49.37c0,.62-.3,1-.7,1.05h-.77V48.35h.56a.82.82,0,0,1,.22,0C14.82,48.42,15.11,48.74,15.11,49.37Zm-.29,0c0-.44-.18-.69-.45-.74h-.45v1.55h.24a.56.56,0,0,0,.2,0C14.64,50.11,14.82,49.83,14.82,49.37Z"/><path class="cls-11" d="M17,48.94h-.28c0-.23-.13-.37-.33-.37a.26.26,0,0,0-.29.28c0,.2.1.3.37.37s.55.3.55.65a.58.58,0,0,1-.61.6.63.63,0,0,1-.68-.64H16c0,.25.19.39.39.39a.31.31,0,0,0,.33-.31c0-.21-.11-.32-.39-.4s-.54-.24-.54-.6a.58.58,0,0,1,.59-.6C16.77,48.31,17,48.58,17,48.94Z"/><path class="cls-11" d="M18.81,49.39c0,.64-.3,1.08-.83,1.08s-.83-.44-.83-1.08.31-1.08.83-1.08S18.81,48.75,18.81,49.39Zm-.29,0c0-.51-.2-.82-.54-.82s-.53.31-.53.82.2.83.53.83S18.52,49.91,18.52,49.39Z"/><path class="cls-11" d="M20.51,49v0h-.27v0c0-.28-.19-.45-.45-.45s-.52.33-.52.82.2.83.51.83.4-.18.44-.46v0h.27v0a.72.72,0,0,1-.74.71c-.49,0-.79-.44-.79-1.07s.34-1.09.82-1.09A.69.69,0,0,1,20.51,49Z"/><path class="cls-11" d="M20.8,50.43V48.35h.27v2.08Z"/><path class="cls-11" d="M21.73,49.74l-.19.69h-.29l.62-2.08h.35l.61,2.08h-.3l-.19-.69Zm.54-.26L22,48.63l-.24.85Z"/><path class="cls-11" d="M24.2,50.43H23V48.35h.28v1.81h.91Z"/><path class="cls-11" d="M26.35,49.37c0,.62-.3,1-.7,1.05h-.77V48.35h.56a.82.82,0,0,1,.22,0C26.06,48.42,26.35,48.74,26.35,49.37Zm-.29,0c0-.44-.17-.69-.45-.74h-.45v1.55h.25a.53.53,0,0,0,.19,0C25.88,50.11,26.06,49.83,26.06,49.37Z"/><path class="cls-11" d="M27.81,50.43H26.62V48.35h1.17v.27H26.9v.64h.82v.26H26.9v.65h.91Z"/><path class="cls-11" d="M30,49v0h-.27v0c-.05-.28-.19-.45-.45-.45s-.52.33-.52.82.2.83.5.83.41-.18.45-.46v0h.27v0a.72.72,0,0,1-.74.71c-.49,0-.79-.44-.79-1.07s.34-1.09.82-1.09A.7.7,0,0,1,30,49Z"/><path class="cls-11" d="M31.78,49.39c0,.64-.3,1.08-.83,1.08s-.83-.44-.83-1.08.3-1.08.83-1.08S31.78,48.75,31.78,49.39Zm-.3,0c0-.51-.2-.82-.53-.82s-.54.31-.54.82.2.83.54.83S31.48,49.91,31.48,49.39Z"/><path class="cls-11" d="M33.35,50.43h-.3a2.25,2.25,0,0,1-.08-.49c0-.22-.09-.36-.25-.37h-.4v.87h-.27V48.35h.59a.9.9,0,0,1,.24,0A.56.56,0,0,1,33,49.42a.54.54,0,0,1,.23.48A1.18,1.18,0,0,0,33.35,50.43Zm-.74-1.12h.16c.15,0,.26-.12.26-.34s-.09-.31-.24-.33h-.47v.69Z"/><path class="cls-11" d="M34.29,48.62v1.81H34V48.62h-.61v-.27h1.48v.27Z"/><path class="cls-11" d="M36.57,49.39c0,.64-.3,1.08-.82,1.08s-.83-.44-.83-1.08.3-1.08.83-1.08S36.57,48.75,36.57,49.39Zm-.29,0c0-.51-.2-.82-.53-.82s-.54.31-.54.82.2.83.54.83S36.28,49.91,36.28,49.39Z"/><path class="cls-11" d="M38.56,49a.57.57,0,0,1-.46.62h-.52v.82h-.27V48.35h.56a.86.86,0,0,1,.23,0A.55.55,0,0,1,38.56,49Zm-.29,0c0-.22-.1-.32-.22-.35h-.47v.72h.47C38.17,49.31,38.27,49.2,38.27,49Z"/><path class="cls-11" d="M40,50.43H38.77V48.35h.28v1.81H40Z"/><path class="cls-11" d="M40.48,49.74l-.18.69H40l.62-2.08H41l.6,2.08h-.3l-.19-.69Zm.54-.26-.23-.85-.23.85Z"/><path class="cls-11" d="M43,50.43H41.65v-.25l1-1.56h-.93v-.27H43v.26l-1,1.56h1Z"/><path class="cls-11" d="M44.75,49.39c0,.64-.31,1.08-.83,1.08s-.83-.44-.83-1.08.3-1.08.83-1.08S44.75,48.75,44.75,49.39Zm-.3,0c0-.51-.2-.82-.53-.82s-.54.31-.54.82.2.83.54.83S44.45,49.91,44.45,49.39Z"/><path class="cls-11" d="M23.77,42.35A3.64,3.64,0,0,1,22.24,42a3.29,3.29,0,0,1-1.17-.88,3.79,3.79,0,0,1-.75-1.39A5.69,5.69,0,0,1,20.05,38V31.72h1.66v6.22a3.5,3.5,0,0,0,.21,1.3,2.33,2.33,0,0,0,.53.81,1.65,1.65,0,0,0,.67.41,2.09,2.09,0,0,0,.65.12,2,2,0,0,0,.64-.12,1.68,1.68,0,0,0,.68-.41,2.46,2.46,0,0,0,.52-.81,3.49,3.49,0,0,0,.22-1.3V31.72h1.65V38a5.69,5.69,0,0,1-.26,1.81,3.93,3.93,0,0,1-.74,1.39A3.42,3.42,0,0,1,25.3,42,3.61,3.61,0,0,1,23.77,42.35Z"/><path class="cls-11" d="M18.2,38.1a2.29,2.29,0,0,0-.45-.8,2.32,2.32,0,0,0-.63-.54,5.76,5.76,0,0,0-.72-.33c-.24-.08-.47-.14-.69-.19l-.59-.14-.69-.19a4.16,4.16,0,0,1-.65-.24,1.34,1.34,0,0,1-.48-.34.72.72,0,0,1-.19-.51.81.81,0,0,1,.16-.52,1.23,1.23,0,0,1,.4-.35,1.89,1.89,0,0,1,.51-.21l.46-.07h3.23V31.89H14.64a5.48,5.48,0,0,0-1,.13,3.29,3.29,0,0,0-1.06.48,2.58,2.58,0,0,0-.79.93A3.53,3.53,0,0,0,11.62,36a2.67,2.67,0,0,0,.46.77,2.52,2.52,0,0,0,.64.54,3.38,3.38,0,0,0,.72.34,5.15,5.15,0,0,0,.71.21l.6.13.75.18a3.78,3.78,0,0,1,.63.24,1.25,1.25,0,0,1,.43.35.89.89,0,0,1,.16.52,1.15,1.15,0,0,1-.11.47,1.13,1.13,0,0,1-.32.43,1.56,1.56,0,0,1-.52.31,1.87,1.87,0,0,1-.7.11H11.68v1.78h3.4a4.33,4.33,0,0,0,1.34-.2,2.84,2.84,0,0,0,1-.57,2.5,2.5,0,0,0,.68-1,3.58,3.58,0,0,0,.23-1.37A3.28,3.28,0,0,0,18.2,38.1Z"/><path class="cls-11" d="M35.8,38.1a2.29,2.29,0,0,0-.45-.8,2.32,2.32,0,0,0-.63-.54,5.76,5.76,0,0,0-.72-.33,6.66,6.66,0,0,0-.7-.19c-.22-.05-.42-.09-.58-.14L32,35.91a4.16,4.16,0,0,1-.65-.24,1.34,1.34,0,0,1-.48-.34.72.72,0,0,1-.19-.51.81.81,0,0,1,.16-.52,1.23,1.23,0,0,1,.4-.35,1.89,1.89,0,0,1,.51-.21l.46-.07h3.23V31.89H32.24a5.48,5.48,0,0,0-1,.13,3.34,3.34,0,0,0-1.07.48,2.66,2.66,0,0,0-.78.93A3.53,3.53,0,0,0,29.22,36a2.67,2.67,0,0,0,.46.77,2.52,2.52,0,0,0,.64.54,3.38,3.38,0,0,0,.72.34,5.15,5.15,0,0,0,.71.21l.6.13.75.18a3.78,3.78,0,0,1,.63.24,1.25,1.25,0,0,1,.43.35.89.89,0,0,1,.16.52,1.15,1.15,0,0,1-.11.47,1.13,1.13,0,0,1-.32.43,1.67,1.67,0,0,1-.52.31,1.91,1.91,0,0,1-.7.11H29.28v1.78h3.4a4.33,4.33,0,0,0,1.34-.2,2.84,2.84,0,0,0,1-.57,2.5,2.5,0,0,0,.68-1A3.78,3.78,0,0,0,36,39.25,3.28,3.28,0,0,0,35.8,38.1Z"/><path class="cls-11" d="M44.43,38.1a2.29,2.29,0,0,0-.45-.8,2.48,2.48,0,0,0-.63-.54,5.76,5.76,0,0,0-.72-.33,6.66,6.66,0,0,0-.7-.19c-.22-.05-.42-.09-.58-.14l-.69-.19a3.82,3.82,0,0,1-.65-.24,1.34,1.34,0,0,1-.48-.34.72.72,0,0,1-.19-.51.81.81,0,0,1,.16-.52,1.23,1.23,0,0,1,.4-.35,1.89,1.89,0,0,1,.51-.21l.46-.07H44.1V31.89H40.87a5.38,5.38,0,0,0-1,.13,3.34,3.34,0,0,0-1.07.48,2.56,2.56,0,0,0-.78.93A3.53,3.53,0,0,0,37.85,36a2.46,2.46,0,0,0,.46.77,2.52,2.52,0,0,0,.64.54,3.38,3.38,0,0,0,.72.34,5.15,5.15,0,0,0,.71.21L41,38l.75.18a3.78,3.78,0,0,1,.63.24,1.25,1.25,0,0,1,.43.35.89.89,0,0,1,.16.52,1.15,1.15,0,0,1-.11.47,1.13,1.13,0,0,1-.32.43,1.67,1.67,0,0,1-.52.31,1.94,1.94,0,0,1-.7.11H37.91v1.78h3.4a4.33,4.33,0,0,0,1.34-.2,2.84,2.84,0,0,0,1-.57,2.5,2.5,0,0,0,.68-1,3.78,3.78,0,0,0,.23-1.37A3.28,3.28,0,0,0,44.43,38.1Z"/><path class="cls-11" d="M6.18,32a.46.46,0,0,0-.88,0L2.82,38.79a2.76,2.76,0,0,1,1.81-.31h.08L5.53,36c.09-.26.29-.26.38,0L7,39.22H4.89s-1.75,0-2.3.73a3.35,3.35,0,0,0-.76,1.6,4.34,4.34,0,0,0-.07.78H3.42s0-.06,0-.09A1.14,1.14,0,0,1,4.63,41H7.57L8,42.33H9.94Z"/></svg>