<svg id="Capa_1" data-name="Capa 1" xmlns="http://www.w3.org/2000/svg" viewBox="0 0 538.71 513"><defs><style>.cls-1,.cls-3{fill:#00ae5a;}.cls-1{fill-rule:evenodd;}.cls-2{fill:#fff;}</style></defs><title>Mesa de trabajo 11nivel</title><path class="cls-1" d="M505.2,83.44c-1.28-54.94-47.49-60.3-233.28-54.94C66.86,28.5,27,28.5,27,129.41,27,264,21.86,405.14,66.86,409c198.21,14,179,42.87,208.81,78.3,27.08-28.29,0-65.58,190.11-78.3C529.38,404.74,507.74,192.09,505.2,83.44Z"/><path class="cls-2" d="M131.15,117.9c-.32-15.38,19.68-28.09,45-28.59H367.53c22.1,0,40,15,40,29.51V352.6H131.15Z"/><path class="cls-3" d="M268.8,219c-47.89.29-87.11-23-87.6-52.13S219.14,114,267,113.67s87.11,23,87.6,52.12v.54C354.82,195.25,316.42,218.8,268.8,219Z"/><path class="cls-3" d="M203.67,247.33H271.1V348.61H203.67ZM349.89,348.61H284V247.33h65.9Z"/><path class="cls-2" d="M304.91,154.27h-15v-9.19c0-7-9.38-12.75-21-12.75s-21,5.69-21,12.73v9.21H234.13c-11.75.44-20.68,6.57-20,13.7.66,6.52,9.22,11.72,20,12.12H247.9v8.41c0,7,9.37,12.74,21,12.75s21-5.69,21-12.73v-8.43h15c11.74-.44,20.68-6.58,20-13.7-.66-6.52-9.22-11.72-20-12.12Z"/></svg>