<svg id="Capa_1" data-name="Capa 1" xmlns="http://www.w3.org/2000/svg" viewBox="0 0 538.71 513"><defs><style>.cls-1,.cls-4{fill:#0262ac;}.cls-1{fill-rule:evenodd;}.cls-2,.cls-3{fill:#fff;}.cls-3{stroke:#0262ac;stroke-miterlimit:10;stroke-width:2px;}.cls-5{fill:red;}</style></defs><title>Mesa de trabajo 12nivelN</title><path class="cls-1" d="M505.2,83.44c-1.28-54.94-47.49-60.3-233.28-54.94C66.86,28.5,27,28.5,27,129.41,27,264,21.86,405.14,66.86,409c198.21,14,179,42.87,208.81,78.3,27.08-28.29,0-65.58,190.11-78.3C529.38,404.74,507.74,192.09,505.2,83.44Z"/><path class="cls-2" d="M427.68,173.34c0-18.45-13.91-31.13-38.62-31.13H335.7V364.63h80.07c6.59,0,11.91-4,11.91-8.9Z"/><path class="cls-3" d="M111.38,119.52c-.26-17.5,16-32,36.54-32.53H303.05c18,0,32.51,17,32.51,33.58v266H111.38Z"/><path class="cls-4" d="M222.88,234.53c-38.88.31-70.7-26.27-71-59.35S182.7,115,221.58,114.71s70.7,26.27,71.06,59.36v.55C292.79,207.54,261.58,234.34,222.88,234.53Z"/><path class="cls-4" d="M392,252.34h-20.8c-6.59,0-11.91-4.22-11.91-9.37v-72.9c0-5.14,5.26-9.33,11.84-9.37H392c6.54.1,11.8,4.26,11.84,9.37V243C403.9,248.1,398.61,252.34,392,252.34Z"/><path class="cls-4" d="M392,357.93h-20.8c-6.57-.07-11.87-4.23-11.91-9.37V276c0-5.14,5.26-9.33,11.84-9.37H392c6.56.07,11.84,4.24,11.84,9.37v72.88c0,5.13-5.28,9.3-11.84,9.37Z"/><path class="cls-4" d="M163.46,261.26H218.2V376.49H163.46ZM282.18,376.49H228.67V261.26h53.51Z"/><path class="cls-2" d="M252.21,160.9h-12.1V150.44c0-8-7.61-14.5-17-14.5s-17,6.47-17,14.48V160.9H194.6c-9.53-.5-17.73,5.67-18.32,13.79s6.67,15.09,16.2,15.59h13.24v9.57c0,8,7.64,14.49,17,14.48s17-6.49,17-14.48v-9.57h12.16c9.53-.5,16.78-7.48,16.2-15.59-.54-7.42-7.49-13.33-16.2-13.79Z"/><path class="cls-5" d="M413.79,236.14c-60.3,0-109.36-50.46-109.36-112.48S353.49,11.17,413.79,11.17,523.15,61.63,523.15,123.66,474.09,236.14,413.79,236.14Z"/><path class="cls-2" d="M473.92,196.8a12,12,0,0,1-8.63-3.68L347,71.4a12.8,12.8,0,0,1,0-17.75,12,12,0,0,1,17.27,0L482.56,175.36a12.81,12.81,0,0,1,0,17.76A12,12,0,0,1,473.92,196.8Z"/><path class="cls-2" d="M355.58,196.8a12,12,0,0,1-8.63-3.68,12.81,12.81,0,0,1,0-17.76L465.29,53.65a12,12,0,0,1,17.26,0,12.8,12.8,0,0,1,0,17.75L364.22,193.12A12,12,0,0,1,355.58,196.8Z"/></svg>