<svg id="Capa_1" data-name="Capa 1" xmlns="http://www.w3.org/2000/svg" viewBox="0 0 538.71 513"><defs><style>.cls-1,.cls-4{fill:#f2752f;}.cls-1{fill-rule:evenodd;}.cls-2,.cls-3{fill:#fff;}.cls-3{stroke:#ff6a0c;stroke-miterlimit:10;stroke-width:2px;}.cls-5{fill:red;}</style></defs><title>Mesa de trabajo 13nivelN</title><path class="cls-1" d="M505.2,83.44c-1.28-54.94-47.49-60.3-233.28-54.94C66.86,28.5,27,28.5,27,129.41,27,264,21.86,405.14,66.86,409c198.21,14,179,42.87,208.81,78.3,27.08-28.29,0-65.58,190.11-78.3C529.38,404.74,507.74,192.09,505.2,83.44Z"/><path class="cls-2" d="M462.66,174.35c0-17.61-11.7-29.72-32.49-29.72H385.3V357h67.34c5.54,0,10-3.82,10-8.49Z"/><path class="cls-2" d="M93.16,172.21c0-17.56,16.75-28.68,37.35-28.68h40v213.4H103.18c-5.54,0-10-3.83-10-8.5Z"/><path class="cls-3" d="M170.59,107.82c-.25-18.63,15.29-34,35-34.63H354.11c17.23,0,31.11,18.14,31.11,35.75V392.13H170.59Z"/><path class="cls-4" d="M277.32,230.25c-37.22.32-67.68-28-68-63.21s29.53-64.06,66.79-64.38,67.68,28,68,63.2v.59C344.24,201.51,314.36,230.05,277.32,230.25Z"/><path class="cls-4" d="M140.59,244.49H123.16c-5.47-.11-9.83-3.88-9.83-8.49V169.9c0-4.67,4.47-8.46,10-8.49h17.49c5.44.17,9.77,3.9,9.83,8.49v66C150.64,240.63,146.11,244.43,140.59,244.49Z"/><path class="cls-4" d="M140.59,340.15H123.16c-5.44-.17-9.77-3.9-9.83-8.49V265.88c0-4.67,4.47-8.47,10-8.5h17.49c5.45.15,9.8,3.9,9.83,8.5v66c-.1,4.66-4.56,8.41-10.08,8.49Z"/><path class="cls-4" d="M432.66,244.49H415.17c-5.54,0-10-3.82-10-8.49V169.9c0-4.66,4.42-8.46,10-8.49h17.55c5.5.08,9.92,3.85,10,8.49v66C442.65,240.62,438.2,244.43,432.66,244.49Z"/><path class="cls-4" d="M432.66,340.15H415.17c-5.53,0-10-3.83-10-8.49V265.88c0-4.66,4.42-8.47,10-8.5h17.55c5.52.06,10,3.85,10,8.5v66c0,4.65-4.44,8.44-10,8.49Z"/><path class="cls-4" d="M220.44,264.59h52.4V387.3h-52.4ZM334.11,387.3H282.86V264.59h51.25Z"/><path class="cls-2" d="M305.39,151.82H293.81V140.7c0-8.52-7.28-15.44-16.29-15.44s-16.31,6.89-16.32,15.42v11.14h-11c-9.13-.53-17,6-17.54,14.68s6.38,16.07,15.51,16.6a16.68,16.68,0,0,0,2,0h10.64v10.19c0,8.52,7.31,15.43,16.32,15.42s16.28-6.91,16.29-15.42V183.12h11.69c9.12-.53,16.07-8,15.51-16.6-.51-7.9-7.14-14.2-15.51-14.7Z"/><path class="cls-5" d="M413.79,236.14c-60.3,0-109.36-50.46-109.36-112.48S353.49,11.17,413.79,11.17,523.15,61.63,523.15,123.66,474.09,236.14,413.79,236.14Z"/><path class="cls-2" d="M355.58,196.8a12,12,0,0,1-8.63-3.68,12.81,12.81,0,0,1,0-17.76L465.29,53.65a12,12,0,0,1,17.26,0,12.8,12.8,0,0,1,0,17.75L364.22,193.12A12,12,0,0,1,355.58,196.8Z"/><path class="cls-2" d="M473.92,196.8a12,12,0,0,1-8.63-3.68L347,71.4a12.8,12.8,0,0,1,0-17.75,12,12,0,0,1,17.27,0L482.56,175.36a12.81,12.81,0,0,1,0,17.76A12,12,0,0,1,473.92,196.8Z"/></svg>