<svg id="Capa_1" data-name="Capa 1" xmlns="http://www.w3.org/2000/svg" viewBox="0 0 538.71 513"><defs><style>.cls-1,.cls-3{fill:#f4b2b0;}.cls-1{fill-rule:evenodd;}.cls-2,.cls-5{fill:#fff;}.cls-2{stroke:#fff;stroke-miterlimit:10;stroke-width:18px;}.cls-4{fill:red;}</style></defs><title>Mesa de trabajo 1bancoN</title><path class="cls-1" d="M505.2,83.44c-1.28-54.94-47.49-60.3-233.28-54.94C66.86,28.5,27,28.5,27,129.41,27,264,21.86,405.14,66.86,409c198.21,14,179,42.87,208.81,78.3,27.08-28.29,0-65.58,190.11-78.3C529.38,404.74,507.74,192.09,505.2,83.44Z"/><path class="cls-2" d="M141.25,290.81c0,27.29,13.69,53.46,38.07,72.77l4.61,3.66c24.37,19.3,57.41,30.14,91.87,30.14s67.5-10.84,91.88-30.15l4.62-3.66c24.36-19.3,38.05-45.47,38.05-72.76,0-34.75-13-68.72-37.31-97.63L286.15,80a13.05,13.05,0,0,0-20.7,0L178.56,193.18C154.24,222.09,141.25,256.06,141.25,290.81Z"/><path class="cls-3" d="M356.53,243.83H316.16v-32c0-5.88-6-10.66-13.45-10.66H248.89c-7.43,0-13.45,4.78-13.45,10.66v32H195.07c-7.43,0-13.45,4.78-13.45,10.66v42.63c0,5.88,6,10.66,13.45,10.66h40.37v32c0,5.88,6,10.66,13.45,10.66h53.82c7.43,0,13.45-4.78,13.45-10.66v-32h40.37C364,307.78,370,303,370,297.12V254.49C370,248.61,364,243.83,356.53,243.83Z"/><path class="cls-4" d="M413.79,236.14c-60.3,0-109.36-50.46-109.36-112.48S353.49,11.17,413.79,11.17,523.15,61.63,523.15,123.66,474.09,236.14,413.79,236.14Z"/><path class="cls-5" d="M355.58,196.8a12,12,0,0,1-8.63-3.68,12.81,12.81,0,0,1,0-17.76L465.29,53.65a12,12,0,0,1,17-.29c.1.09.19.19.29.29a12.8,12.8,0,0,1,0,17.75L364.22,193.12A12,12,0,0,1,355.58,196.8Z"/><path class="cls-5" d="M473.92,196.8a12,12,0,0,1-8.63-3.68L347,71.4a12.8,12.8,0,0,1,0-17.75,12,12,0,0,1,17-.3l.3.3L482.56,175.36a12.81,12.81,0,0,1,0,17.76A12,12,0,0,1,473.92,196.8Z"/></svg>