<svg id="Capa_1" data-name="Capa 1" xmlns="http://www.w3.org/2000/svg" viewBox="0 0 538.71 513"><defs><style>.cls-1,.cls-3{fill:#f4b2b0;}.cls-1{fill-rule:evenodd;}.cls-2{fill:#fff;stroke:#fff;stroke-miterlimit:10;stroke-width:18px;}</style></defs><title>Mesa de trabajo 1banco</title><path class="cls-1" d="M505.2,83.44c-1.28-54.94-47.49-60.3-233.28-54.94C66.86,28.5,27,28.5,27,129.41,27,264,21.86,405.14,66.86,409c198.21,14,179,42.87,208.81,78.3,27.08-28.29,0-65.58,190.11-78.3C529.38,404.74,507.74,192.09,505.2,83.44Z"/><path class="cls-2" d="M138.86,290c0,27.29,13.68,53.47,38.06,72.78l4.62,3.65c24.36,19.3,57.41,30.14,91.87,30.14s67.5-10.84,91.88-30.15l4.61-3.65C394.27,343.47,408,317.29,408,290c0-34.74-13-68.72-37.31-97.62L283.76,79.2a13.05,13.05,0,0,0-20.71,0L176.17,192.38C151.84,221.28,138.86,255.26,138.86,290Z"/><path class="cls-3" d="M354.13,243H313.77v-32c0-5.88-6-10.65-13.46-10.65H246.5c-7.43,0-13.46,4.77-13.46,10.65v32H192.68c-7.43,0-13.46,4.77-13.46,10.65v42.63c0,5.89,6,10.66,13.46,10.66H233v32c0,5.88,6,10.66,13.46,10.66h53.81c7.43,0,13.46-4.78,13.46-10.66V307h40.36c7.43,0,13.46-4.77,13.46-10.66V253.68C367.59,247.8,361.56,243,354.13,243Z"/></svg>